# xmcd CD database file
#
# Track frame offsets:
#	182
#	12310
#	23485
#	34562
#	47857
#	58282
#	73610
#	84845
#	97677
#	108960
#	123110
#	137700
#	153327
#	168292
#	183742
#	200447
#
# Disc length: 2886 seconds
#
# Revision: 1
# Processed by: cddbd v1.5.2PL0 Copyright (c) Steve Scherf et al.
# Submitted via: jetAudio 5
#
DISCID=c50b4410
DTITLE=The Great Soul Ballads - The Great Soul Ballads
DYEAR=1900
DGENRE=
TTITLE0=Sam Cooke - Bring It On Home To Me
TTITLE1=Jackie Wilson - To Be Loved
TTITLE2=Brook Benton - It's Just A Matter Of Time
TTITLE3=Etta James - All I Could Do Was Cry
TTITLE4=Clarence 'Frogman' Henry - But I Do
TTITLE5=Chuck Jackson - Any Day Now
TTITLE6=Solomon Burke - If You Need Me
TTITLE7=Jerry Butler and Betty Everett - Let It Be Me
TTITLE8=Gene Chandler - Just Be True
TTITLE9=Percy Sledge - Warm And Tender Love
TTITLE10=Sam And Dave - When Something Is Wrong With My Baby
TTITLE11=Fontella Bass - You've Lost That Lovin' Feelling
TTITLE12=The Dells - Love Is Blue - I Can Sing A Rainbow
TTITLE13=Clarence Carter - You Don't Have To Say You Love Me
TTITLE14=Timmy Thomes - Why Can't We Live Together
TTITLE15=The Chi Lites - Oh Girl
EXTD=
EXTT0=
EXTT1=
EXTT2=
EXTT3=
EXTT4=
EXTT5=
EXTT6=
EXTT7=
EXTT8=
EXTT9=
EXTT10=
EXTT11=
EXTT12=
EXTT13=
EXTT14=
EXTT15=
PLAYORDER=
